<svg version="1.1" class="can-badge can-alert has-solid " viewBox="0 0 36 36" preserveAspectRatio="xMidYMid meet" xmlns="http://www.w3.org/2000/svg" xmlns:xlink="http://www.w3.org/1999/xlink" focusable="false" role="img" width="18" height="18" fill="#ffffff"><path class="clr-i-outline clr-i-outline-path-1" d="M18,21a1,1,0,0,1-1-1V4a1,1,0,0,1,2,0V20A1,1,0,0,1,18,21Z"/><path class="clr-i-outline clr-i-outline-path-2" d="M18,34.15a15,15,0,0,1-7.52-28,1,1,0,0,1,1,1.73,13,13,0,1,0,13,0,1,1,0,1,1,1-1.73,15,15,0,0,1-7.52,28Z"/><path class="clr-i-outline--alerted clr-i-outline-path-1--alerted" d="M18,21a1,1,0,0,0,1-1V4a1,1,0,0,0-2,0V20A1,1,0,0,0,18,21Z" style="display:none"/><path class="clr-i-outline--alerted clr-i-outline-path-2--alerted" d="M32.51,15.4H30.44a13,13,0,1,1-19-7.5,1,1,0,0,0-1-1.73A15,15,0,1,0,33,19.15,14.9,14.9,0,0,0,32.51,15.4Z" style="display:none"/><path class="clr-i-outline--alerted clr-i-outline-path-3--alerted clr-i-alert" d="M26.85,1.14,21.13,11A1.28,1.28,0,0,0,22.23,13H33.68A1.28,1.28,0,0,0,34.78,11L29.06,1.14A1.28,1.28,0,0,0,26.85,1.14Z" style="display:none"/><path class="clr-i-outline--badged clr-i-outline-path-1--badged" d="M18,21a1,1,0,0,1-1-1V4a1,1,0,0,1,2,0V20A1,1,0,0,1,18,21Z" style="display:none"/><path class="clr-i-outline--badged clr-i-outline-path-2--badged" d="M30,13.5l-.31,0A13,13,0,1,1,11.48,7.9a1,1,0,0,0-1-1.73,15,15,0,1,0,21.31,7.1A7.49,7.49,0,0,1,30,13.5Z" style="display:none"/><path class="clr-i-solid clr-i-solid-path-1" d="M18,2A16,16,0,1,0,34,18,16,16,0,0,0,18,2Zm.06,17.68a1.28,1.28,0,0,1-1.29-1.28V8.65a1.29,1.29,0,0,1,2.58,0V18.4A1.28,1.28,0,0,1,18.06,19.68ZM18,27.79A9.88,9.88,0,0,1,12.17,9.85a1.4,1.4,0,0,1,1.94.31,1.37,1.37,0,0,1-.31,1.92,7.18,7.18,0,1,0,11.43,5.8,7.07,7.07,0,0,0-3-5.76A1.37,1.37,0,0,1,22,10.2a1.4,1.4,0,0,1,1.94-.29A9.88,9.88,0,0,1,18,27.79Z" style="display:none"/><path class="clr-i-solid--alerted clr-i-solid-path-1--alerted" d="M33.68,15.4h-6A9.7,9.7,0,0,1,28,17.89a10,10,0,1,1-15.83-8,1.4,1.4,0,0,1,1.94.31,1.37,1.37,0,0,1-.31,1.92,7.18,7.18,0,1,0,11.43,5.8,7.08,7.08,0,0,0-.45-2.49H22.23A3.69,3.69,0,0,1,19.35,14v4.4a1.29,1.29,0,0,1-2.58,0V8.65a1.29,1.29,0,0,1,2.58,0v.71l3.76-6.51A16,16,0,1,0,34,18a16,16,0,0,0-.23-2.61Z" style="display:none"/><path class="clr-i-solid--alerted clr-i-solid-path-2--alerted clr-i-alert" d="M26.85,1.14,21.13,11A1.28,1.28,0,0,0,22.23,13H33.68A1.28,1.28,0,0,0,34.78,11L29.06,1.14A1.28,1.28,0,0,0,26.85,1.14Z" style="display:none"/><path class="clr-i-solid--badged clr-i-solid-path-1--badged" d="M30,13.5a7.47,7.47,0,0,1-3.57-.9A9.83,9.83,0,0,1,28,17.89a10,10,0,1,1-15.83-8,1.4,1.4,0,0,1,1.94.31,1.37,1.37,0,0,1-.31,1.92,7.18,7.18,0,1,0,11.43,5.8,7.07,7.07,0,0,0-3-5.76A1.37,1.37,0,0,1,22,10.2a1.38,1.38,0,0,1,1.52-.49,7.45,7.45,0,0,1-.3-6.83,16.06,16.06,0,1,0,9.93,9.93A7.46,7.46,0,0,1,30,13.5ZM16.77,8.65a1.29,1.29,0,0,1,2.58,0V18.4a1.29,1.29,0,0,1-2.58,0Z" style="display:none"/><circle class="clr-i-outline--badged clr-i-outline-path-3--badged clr-i-badge" cx="30" cy="6" r="5" style="display:none"/><circle class="clr-i-solid--badged clr-i-solid-path-2--badged clr-i-badge" cx="30" cy="6" r="5" style="display:none"/></svg>